<svg width="48" height="48" viewBox="0 0 48 48" fill="none" xmlns="http://www.w3.org/2000/svg">
<path d="M40 0C44.4183 0 48 3.58172 48 8V40C48 44.4183 44.4183 48 40 48H8C3.58172 48 0 44.4183 0 40V8C5.15405e-07 3.58172 3.58172 0 8 0H40Z" fill="#0078B8" fill-opacity="0.2"/>
<path d="M40 0C44.4183 0 48 3.58172 48 8V40C48 44.4183 44.4183 48 40 48H8C3.58172 48 0 44.4183 0 40V8C5.15405e-07 3.58172 3.58172 0 8 0H40Z" stroke="#E5E7EB"/>
<path d="M32 36H16V12H32V36Z" stroke="#E5E7EB"/>
<path d="M32 32H16V16H32V32Z" stroke="#E5E7EB"/>
<path d="M17.5 18C16.6719 18 16 18.6719 16 19.5C16 19.9719 16.2219 20.4156 16.6 20.7L23.4 25.8C23.7562 26.0656 24.2438 26.0656 24.6 25.8L31.4 20.7C31.7781 20.4156 32 19.9719 32 19.5C32 18.6719 31.3281 18 30.5 18H17.5ZM16 21.5V28C16 29.1031 16.8969 30 18 30H30C31.1031 30 32 29.1031 32 28V21.5L25.2 26.6C24.4875 27.1344 23.5125 27.1344 22.8 26.6L16 21.5Z" fill="#0078B8"/>
</svg>
