<svg width="48" height="48" viewBox="0 0 48 48" fill="none" xmlns="http://www.w3.org/2000/svg">
<path d="M40 0C44.4183 0 48 3.58172 48 8V40C48 44.4183 44.4183 48 40 48H8C3.58172 48 0 44.4183 0 40V8C5.15405e-07 3.58172 3.58172 0 8 0H40Z" fill="#0078B8" fill-opacity="0.2"/>
<path d="M40 0C44.4183 0 48 3.58172 48 8V40C48 44.4183 44.4183 48 40 48H8C3.58172 48 0 44.4183 0 40V8C5.15405e-07 3.58172 3.58172 0 8 0H40Z" stroke="#E5E7EB"/>
<path d="M32 36H16V12H32V36Z" stroke="#E5E7EB"/>
<g clip-path="url(#clip0_1_279)">
<path d="M24 16C26.1217 16 28.1566 16.8429 29.6569 18.3431C31.1571 19.8434 32 21.8783 32 24C32 26.1217 31.1571 28.1566 29.6569 29.6569C28.1566 31.1571 26.1217 32 24 32C21.8783 32 19.8434 31.1571 18.3431 29.6569C16.8429 28.1566 16 26.1217 16 24C16 21.8783 16.8429 19.8434 18.3431 18.3431C19.8434 16.8429 21.8783 16 24 16ZM23.25 19.75V24C23.25 24.25 23.375 24.4844 23.5844 24.625L26.5844 26.625C26.9281 26.8562 27.3938 26.7625 27.625 26.4156C27.8562 26.0687 27.7625 25.6062 27.4156 25.375L24.75 23.6V19.75C24.75 19.3344 24.4156 19 24 19C23.5844 19 23.25 19.3344 23.25 19.75Z" fill="#0078B8"/>
</g>
<defs>
<clipPath id="clip0_1_279">
<path d="M16 16H32V32H16V16Z" fill="white"/>
</clipPath>
</defs>
</svg>
