<svg width="65" height="64" viewBox="0 0 65 64" fill="none" xmlns="http://www.w3.org/2000/svg">
<path d="M56.6562 0C61.0745 0 64.6562 3.58172 64.6562 8V56C64.6562 60.4183 61.0745 64 56.6562 64H8.65625C4.23797 64 0.65625 60.4183 0.65625 56V8C0.65625 3.58172 4.23797 0 8.65625 0H56.6562Z" fill="#0078B8" fill-opacity="0.2"/>
<path d="M56.6562 0C61.0745 0 64.6562 3.58172 64.6562 8V56C64.6562 60.4183 61.0745 64 56.6562 64H8.65625C4.23797 64 0.65625 60.4183 0.65625 56V8C0.65625 3.58172 4.23797 0 8.65625 0H56.6562Z" stroke="#E5E7EB"/>
<path d="M46.1562 48H19.1562V16H46.1562V48Z" stroke="#E5E7EB"/>
<g clip-path="url(#clip0_1_99)">
<path d="M19.1562 20.125C19.1562 19.5016 19.6578 19 20.2812 19H22.4141C23.4453 19 24.3594 19.6 24.7859 20.5H44.0516C45.2844 20.5 46.1844 21.6719 45.8609 22.8625L43.9391 30.0016C43.5406 31.4734 42.2047 32.5 40.6813 32.5H27.1578L27.4109 33.8359C27.5141 34.3656 27.9781 34.75 28.5172 34.75H42.0312C42.6547 34.75 43.1562 35.2516 43.1562 35.875C43.1562 36.4984 42.6547 37 42.0312 37H28.5172C26.8953 37 25.5031 35.8469 25.2031 34.2578L22.7844 21.5547C22.7516 21.3766 22.5969 21.25 22.4141 21.25H20.2812C19.6578 21.25 19.1562 20.7484 19.1562 20.125ZM25.1562 40.75C25.1562 40.4545 25.2144 40.1619 25.3275 39.889C25.4406 39.616 25.6063 39.3679 25.8153 39.159C26.0242 38.9501 26.2722 38.7843 26.5452 38.6713C26.8182 38.5582 27.1108 38.5 27.4062 38.5C27.7017 38.5 27.9943 38.5582 28.2673 38.6713C28.5403 38.7843 28.7883 38.9501 28.9972 39.159C29.2062 39.3679 29.3719 39.616 29.485 39.889C29.5981 40.1619 29.6562 40.4545 29.6562 40.75C29.6562 41.0455 29.5981 41.3381 29.485 41.611C29.3719 41.884 29.2062 42.1321 28.9972 42.341C28.7883 42.5499 28.5403 42.7157 28.2673 42.8287C27.9943 42.9418 27.7017 43 27.4062 43C27.1108 43 26.8182 42.9418 26.5452 42.8287C26.2722 42.7157 26.0242 42.5499 25.8153 42.341C25.6063 42.1321 25.4406 41.884 25.3275 41.611C25.2144 41.3381 25.1562 41.0455 25.1562 40.75ZM40.9062 38.5C41.503 38.5 42.0753 38.7371 42.4972 39.159C42.9192 39.581 43.1562 40.1533 43.1562 40.75C43.1562 41.3467 42.9192 41.919 42.4972 42.341C42.0753 42.7629 41.503 43 40.9062 43C40.3095 43 39.7372 42.7629 39.3153 42.341C38.8933 41.919 38.6562 41.3467 38.6562 40.75C38.6562 40.1533 38.8933 39.581 39.3153 39.159C39.7372 38.7371 40.3095 38.5 40.9062 38.5Z" fill="#0078B8"/>
</g>
<defs>
<clipPath id="clip0_1_99">
<path d="M19.1562 19H46.1562V43H19.1562V19Z" fill="white"/>
</clipPath>
</defs>
</svg>
