<svg width="64" height="64" viewBox="0 0 64 64" fill="none" xmlns="http://www.w3.org/2000/svg">
<path d="M56 0C60.4183 0 64 3.58172 64 8V56C64 60.4183 60.4183 64 56 64H8C3.58172 64 0 60.4183 0 56V8C0 3.58172 3.58172 0 8 0H56Z" fill="#0078B8" fill-opacity="0.2"/>
<path d="M56 0C60.4183 0 64 3.58172 64 8V56C64 60.4183 60.4183 64 56 64H8C3.58172 64 0 60.4183 0 56V8C0 3.58172 3.58172 0 8 0H56Z" stroke="#E5E7EB"/>
<path d="M44 48H20V16H44V48Z" stroke="#E5E7EB"/>
<g clip-path="url(#clip0_1_93)">
<path d="M44 31C44 31.0422 44 31.0844 44 31.1266C43.9813 32.8375 42.425 34 40.7141 34H36.125C34.8828 34 33.875 35.0078 33.875 36.25C33.875 36.4094 33.8938 36.5641 33.9219 36.7141C34.0203 37.1922 34.2266 37.6516 34.4281 38.1156C34.7141 38.7625 34.9953 39.4047 34.9953 40.0844C34.9953 41.575 33.9828 42.9297 32.4922 42.9906C32.3281 42.9953 32.1641 43 31.9953 43C25.3719 43 20 37.6281 20 31C20 24.3719 25.3719 19 32 19C38.6281 19 44 24.3719 44 31ZM26 32.5C26 32.1022 25.842 31.7206 25.5607 31.4393C25.2794 31.158 24.8978 31 24.5 31C24.1022 31 23.7206 31.158 23.4393 31.4393C23.158 31.7206 23 32.1022 23 32.5C23 32.8978 23.158 33.2794 23.4393 33.5607C23.7206 33.842 24.1022 34 24.5 34C24.8978 34 25.2794 33.842 25.5607 33.5607C25.842 33.2794 26 32.8978 26 32.5ZM26 28C26.3978 28 26.7794 27.842 27.0607 27.5607C27.342 27.2794 27.5 26.8978 27.5 26.5C27.5 26.1022 27.342 25.7206 27.0607 25.4393C26.7794 25.158 26.3978 25 26 25C25.6022 25 25.2206 25.158 24.9393 25.4393C24.658 25.7206 24.5 26.1022 24.5 26.5C24.5 26.8978 24.658 27.2794 24.9393 27.5607C25.2206 27.842 25.6022 28 26 28ZM33.5 23.5C33.5 23.1022 33.342 22.7206 33.0607 22.4393C32.7794 22.158 32.3978 22 32 22C31.6022 22 31.2206 22.158 30.9393 22.4393C30.658 22.7206 30.5 23.1022 30.5 23.5C30.5 23.8978 30.658 24.2794 30.9393 24.5607C31.2206 24.842 31.6022 25 32 25C32.3978 25 32.7794 24.842 33.0607 24.5607C33.342 24.2794 33.5 23.8978 33.5 23.5ZM38 28C38.3978 28 38.7794 27.842 39.0607 27.5607C39.342 27.2794 39.5 26.8978 39.5 26.5C39.5 26.1022 39.342 25.7206 39.0607 25.4393C38.7794 25.158 38.3978 25 38 25C37.6022 25 37.2206 25.158 36.9393 25.4393C36.658 25.7206 36.5 26.1022 36.5 26.5C36.5 26.8978 36.658 27.2794 36.9393 27.5607C37.2206 27.842 37.6022 28 38 28Z" fill="#0078B8"/>
</g>
<defs>
<clipPath id="clip0_1_93">
<path d="M20 19H44V43H20V19Z" fill="white"/>
</clipPath>
</defs>
</svg>
