<svg width="65" height="64" viewBox="0 0 65 64" fill="none" xmlns="http://www.w3.org/2000/svg">
<path d="M56.3281 0C60.7464 0 64.3281 3.58172 64.3281 8V56C64.3281 60.4183 60.7464 64 56.3281 64H8.32812C3.90985 64 0.328125 60.4183 0.328125 56V8C0.328125 3.58172 3.90985 0 8.32812 0H56.3281Z" fill="#0078B8" fill-opacity="0.2"/>
<path d="M56.3281 0C60.7464 0 64.3281 3.58172 64.3281 8V56C64.3281 60.4183 60.7464 64 56.3281 64H8.32812C3.90985 64 0.328125 60.4183 0.328125 56V8C0.328125 3.58172 3.90985 0 8.32812 0H56.3281Z" stroke="#E5E7EB"/>
<path d="M44.3281 48H20.3281V16H44.3281V48Z" stroke="#E5E7EB"/>
<g clip-path="url(#clip0_1_105)">
<path d="M24.0124 19.2345C23.5671 18.8876 22.9342 18.9298 22.5311 19.3282L20.6561 21.2032C20.2577 21.6016 20.2155 22.2345 20.5577 22.6845L24.3077 27.5595C24.5186 27.836 24.8514 28.0001 25.1983 28.0001H27.7342L32.8436 33.1095C32.1546 34.4688 32.3749 36.1751 33.5139 37.3095L38.7639 42.5595C39.3499 43.1454 40.3014 43.1454 40.8874 42.5595L43.8874 39.5595C44.4733 38.9735 44.4733 38.0219 43.8874 37.436L38.6374 32.186C37.503 31.0516 35.7967 30.8266 34.4374 31.5157L29.328 26.4063V23.8751C29.328 23.5235 29.1639 23.1954 28.8874 22.9845L24.0124 19.2345ZM21.2608 37.5673C20.6655 38.1626 20.328 38.9735 20.328 39.8173C20.328 41.5751 21.753 43.0001 23.5108 43.0001C24.3546 43.0001 25.1655 42.6626 25.7608 42.0673L31.2827 36.5454C30.9171 35.5657 30.8608 34.5016 31.1139 33.4938L28.2217 30.6016L21.2608 37.5673ZM44.328 25.7501C44.328 25.2579 44.2764 24.7798 44.178 24.3204C44.0655 23.7954 43.4233 23.6595 43.0436 24.0391L40.0483 27.0345C39.9077 27.1751 39.7155 27.2548 39.5186 27.2548H36.828C36.4155 27.2548 36.078 26.9173 36.078 26.5048V23.8095C36.078 23.6126 36.1577 23.4204 36.2983 23.2798L39.2936 20.2845C39.6733 19.9048 39.5374 19.2626 39.0124 19.1501C38.5483 19.0516 38.0702 19.0001 37.578 19.0001C33.8514 19.0001 30.828 22.0235 30.828 25.7501V25.7876L34.8264 29.786C36.5139 29.3595 38.3796 29.8095 39.7014 31.1313L40.4374 31.8673C42.7342 30.7891 44.328 28.4548 44.328 25.7501ZM22.953 39.2501C22.953 38.9517 23.0715 38.6656 23.2825 38.4546C23.4935 38.2436 23.7796 38.1251 24.078 38.1251C24.3764 38.1251 24.6625 38.2436 24.8735 38.4546C25.0845 38.6656 25.203 38.9517 25.203 39.2501C25.203 39.5484 25.0845 39.8346 24.8735 40.0456C24.6625 40.2565 24.3764 40.3751 24.078 40.3751C23.7796 40.3751 23.4935 40.2565 23.2825 40.0456C23.0715 39.8346 22.953 39.5484 22.953 39.2501Z" fill="#0078B8"/>
</g>
<defs>
<clipPath id="clip0_1_105">
<path d="M20.3281 19H44.3281V43H20.3281V19Z" fill="white"/>
</clipPath>
</defs>
</svg>
