<svg width="65" height="64" viewBox="0 0 65 64" fill="none" xmlns="http://www.w3.org/2000/svg">
<path d="M56.3281 0C60.7464 0 64.3281 3.58172 64.3281 8V56C64.3281 60.4183 60.7464 64 56.3281 64H8.32812C3.90985 64 0.328125 60.4183 0.328125 56V8C0.328125 3.58172 3.90985 0 8.32812 0H56.3281Z" fill="#0078B8" fill-opacity="0.2"/>
<path d="M56.3281 0C60.7464 0 64.3281 3.58172 64.3281 8V56C64.3281 60.4183 60.7464 64 56.3281 64H8.32812C3.90985 64 0.328125 60.4183 0.328125 56V8C0.328125 3.58172 3.90985 0 8.32812 0H56.3281Z" stroke="#E5E7EB"/>
<path d="M47.3281 48H17.3281V16H47.3281V48Z" stroke="#E5E7EB"/>
<g clip-path="url(#clip0_1_96)">
<path d="M35.7404 19.0563C34.9436 18.8267 34.1139 19.2907 33.8842 20.0876L27.8842 41.0876C27.6545 41.8845 28.1186 42.7142 28.9154 42.9438C29.7123 43.1735 30.542 42.7095 30.7717 41.9126L36.7717 20.9126C37.0014 20.1157 36.5373 19.286 35.7404 19.0563ZM39.5186 24.686C38.9326 25.272 38.9326 26.2235 39.5186 26.8095L43.7045 31.0001L39.5139 35.1907C38.9279 35.7767 38.9279 36.7282 39.5139 37.3142C40.0998 37.9001 41.0514 37.9001 41.6373 37.3142L46.8873 32.0642C47.4732 31.4782 47.4732 30.5267 46.8873 29.9407L41.6373 24.6907C41.0514 24.1048 40.0998 24.1048 39.5139 24.6907L39.5186 24.686ZM25.142 24.686C24.5561 24.1001 23.6045 24.1001 23.0186 24.686L17.7686 29.936C17.1826 30.522 17.1826 31.4735 17.7686 32.0595L23.0186 37.3095C23.6045 37.8954 24.5561 37.8954 25.142 37.3095C25.7279 36.7235 25.7279 35.772 25.142 35.186L20.9514 31.0001L25.142 26.8095C25.7279 26.2235 25.7279 25.272 25.142 24.686Z" fill="#0078B8"/>
</g>
<defs>
<clipPath id="clip0_1_96">
<path d="M17.3281 19H47.3281V43H17.3281V19Z" fill="white"/>
</clipPath>
</defs>
</svg>
