<svg width="65" height="64" viewBox="0 0 65 64" fill="none" xmlns="http://www.w3.org/2000/svg">
<path d="M56.6562 0C61.0745 0 64.6562 3.58172 64.6562 8V56C64.6562 60.4183 61.0745 64 56.6562 64H8.65625C4.23797 64 0.65625 60.4183 0.65625 56V8C0.65625 3.58172 4.23797 0 8.65625 0H56.6562Z" fill="#0078B8" fill-opacity="0.2"/>
<path d="M56.6562 0C61.0745 0 64.6562 3.58172 64.6562 8V56C64.6562 60.4183 61.0745 64 56.6562 64H8.65625C4.23797 64 0.65625 60.4183 0.65625 56V8C0.65625 3.58172 4.23797 0 8.65625 0H56.6562Z" stroke="#E5E7EB"/>
<path d="M41.6562 48H23.6562V16H41.6562V48Z" stroke="#E5E7EB"/>
<path d="M41.6562 43H23.6562V19H41.6562V43Z" stroke="#E5E7EB"/>
<path d="M36.4062 37C36.8562 35.5047 37.7891 34.2297 38.7125 32.9594C38.9563 32.6266 39.2 32.2937 39.4344 31.9562C40.3625 30.6203 40.9062 29.0031 40.9062 27.2547C40.9062 22.6938 37.2125 19 32.6562 19C28.1 19 24.4062 22.6938 24.4062 27.25C24.4062 28.9984 24.95 30.6203 25.8781 31.9516C26.1125 32.2891 26.3562 32.6219 26.6 32.9547C27.5281 34.225 28.4609 35.5047 28.9062 36.9953H36.4062V37ZM32.6562 43C34.7281 43 36.4062 41.3219 36.4062 39.25V38.5H28.9062V39.25C28.9062 41.3219 30.5844 43 32.6562 43ZM28.9062 27.25C28.9062 27.6625 28.5687 28 28.1562 28C27.7438 28 27.4062 27.6625 27.4062 27.25C27.4062 24.3484 29.7547 22 32.6562 22C33.0688 22 33.4062 22.3375 33.4062 22.75C33.4062 23.1625 33.0688 23.5 32.6562 23.5C30.5844 23.5 28.9062 25.1781 28.9062 27.25Z" fill="#0078B8"/>
</svg>
