<svg width="48" height="48" viewBox="0 0 48 48" fill="none" xmlns="http://www.w3.org/2000/svg">
<path d="M40 0C44.4183 0 48 3.58172 48 8V40C48 44.4183 44.4183 48 40 48H8C3.58172 48 0 44.4183 0 40V8C5.15405e-07 3.58172 3.58172 0 8 0H40Z" fill="#0078B8" fill-opacity="0.2"/>
<path d="M40 0C44.4183 0 48 3.58172 48 8V40C48 44.4183 44.4183 48 40 48H8C3.58172 48 0 44.4183 0 40V8C5.15405e-07 3.58172 3.58172 0 8 0H40Z" stroke="#E5E7EB"/>
<path d="M32 36H16V12H32V36Z" stroke="#E5E7EB"/>
<g clip-path="url(#clip0_1_277)">
<path d="M21.1531 16.769C20.9125 16.1877 20.2781 15.8783 19.6719 16.044L16.9219 16.794C16.3781 16.944 16 17.4377 16 18.0002C16 25.7315 22.2688 32.0002 30 32.0002C30.5625 32.0002 31.0563 31.6221 31.2063 31.0783L31.9563 28.3283C32.1219 27.7221 31.8125 27.0877 31.2312 26.8471L28.2312 25.5971C27.7219 25.3846 27.1313 25.5315 26.7844 25.9596L25.5219 27.5002C23.3219 26.4596 21.5406 24.6783 20.5 22.4783L22.0406 21.219C22.4688 20.869 22.6156 20.2815 22.4031 19.7721L21.1531 16.7721V16.769Z" fill="#0078B8"/>
</g>
<defs>
<clipPath id="clip0_1_277">
<path d="M16 16H32V32H16V16Z" fill="white"/>
</clipPath>
</defs>
</svg>
